<?xml version="1.0" standalone="no"?>
<!DOCTYPE svg PUBLIC "-//W3C//DTD SVG 20010904//EN"
 "http://www.w3.org/TR/2001/REC-SVG-20010904/DTD/svg10.dtd">
<svg version="1.0" xmlns="http://www.w3.org/2000/svg"
 width="500.000000pt" height="500.000000pt" viewBox="0 0 500.000000 500.000000"
 preserveAspectRatio="xMidYMid meet">

<g transform="translate(0.000000,500.000000) scale(0.100000,-0.100000)"
fill="#000000" stroke="none">
<path d="M2310 4990 c-597 -49 -1159 -308 -1575 -726 -320 -321 -536 -696
-650 -1125 -59 -224 -79 -381 -78 -624 1 -304 33 -522 118 -785 174 -538 523
-996 1000 -1314 207 -138 554 -289 790 -344 372 -87 792 -88 1160 -2 859 200
1575 880 1819 1725 104 364 127 719 70 1090 -62 401 -225 787 -475 1122 -113
152 -378 410 -531 518 -424 299 -881 453 -1388 469 -85 2 -202 1 -260 -4z
m419 -905 c204 -69 384 -250 446 -448 35 -109 44 -191 45 -378 l0 -157 163 -3
c152 -4 165 -6 217 -31 71 -35 143 -107 178 -178 l27 -55 0 -750 0 -750 -29
-58 c-33 -64 -102 -134 -162 -165 -83 -42 -114 -43 -1154 -40 l-995 3 -57 27
c-76 35 -151 107 -185 177 l-28 56 0 750 0 750 26 55 c33 70 103 141 177 177
54 27 65 28 218 32 l162 3 4 212 c5 187 8 220 29 291 33 109 88 203 167 287
106 112 201 169 347 209 108 29 291 22 404 -16z"/>
<path d="M2393 3746 c-96 -31 -188 -119 -222 -212 -19 -48 -21 -78 -21 -244
l0 -190 350 0 350 0 0 190 c0 167 -2 196 -21 245 -27 72 -104 156 -176 191
-67 33 -191 43 -260 20z"/>
<path d="M2409 2607 c-108 -31 -202 -115 -240 -216 -17 -46 -20 -72 -17 -142
5 -108 38 -180 114 -248 l52 -46 4 -135 c5 -138 11 -163 52 -208 32 -36 75
-54 126 -54 70 0 126 35 161 102 7 15 14 77 17 160 l5 135 56 55 c86 84 106
133 106 255 0 95 -2 103 -34 163 -40 74 -94 125 -167 159 -65 29 -169 38 -235
20z"/>
</g>
</svg>
